<mxfile host="app.diagrams.net" modified="2022-04-15T07:07:09.387Z" agent="5.0 (Windows NT 10.0; Win64; x64) AppleWebKit/537.36 (KHTML, like Gecko) Chrome/100.0.4896.60 Safari/537.36 Edg/100.0.1185.29" etag="ZcpzlxZXt8oLkMc45Wyw" version="17.4.4" type="github">
  <diagram id="4koBMzHRquxHyES5pKS7" name="Page-1">
    <mxGraphModel dx="1055" dy="718" grid="1" gridSize="10" guides="1" tooltips="1" connect="1" arrows="1" fold="1" page="1" pageScale="1" pageWidth="827" pageHeight="1169" math="0" shadow="0">
      <root>
        <mxCell id="0" />
        <mxCell id="1" parent="0" />
        <mxCell id="fUje2Ikz33wsZxV5B8qo-6" style="edgeStyle=orthogonalEdgeStyle;rounded=0;orthogonalLoop=1;jettySize=auto;html=1;exitX=0.5;exitY=1;exitDx=0;exitDy=0;" edge="1" parent="1" source="fUje2Ikz33wsZxV5B8qo-1" target="fUje2Ikz33wsZxV5B8qo-2">
          <mxGeometry relative="1" as="geometry" />
        </mxCell>
        <mxCell id="fUje2Ikz33wsZxV5B8qo-7" style="edgeStyle=orthogonalEdgeStyle;rounded=0;orthogonalLoop=1;jettySize=auto;html=1;exitX=0.5;exitY=1;exitDx=0;exitDy=0;entryX=0.5;entryY=0;entryDx=0;entryDy=0;" edge="1" parent="1" source="fUje2Ikz33wsZxV5B8qo-1" target="fUje2Ikz33wsZxV5B8qo-3">
          <mxGeometry relative="1" as="geometry" />
        </mxCell>
        <mxCell id="fUje2Ikz33wsZxV5B8qo-8" style="edgeStyle=orthogonalEdgeStyle;rounded=0;orthogonalLoop=1;jettySize=auto;html=1;exitX=0.5;exitY=1;exitDx=0;exitDy=0;" edge="1" parent="1" source="fUje2Ikz33wsZxV5B8qo-1" target="fUje2Ikz33wsZxV5B8qo-4">
          <mxGeometry relative="1" as="geometry" />
        </mxCell>
        <mxCell id="fUje2Ikz33wsZxV5B8qo-9" style="edgeStyle=orthogonalEdgeStyle;rounded=0;orthogonalLoop=1;jettySize=auto;html=1;exitX=0.5;exitY=1;exitDx=0;exitDy=0;entryX=0.5;entryY=0;entryDx=0;entryDy=0;" edge="1" parent="1" source="fUje2Ikz33wsZxV5B8qo-1" target="fUje2Ikz33wsZxV5B8qo-5">
          <mxGeometry relative="1" as="geometry" />
        </mxCell>
        <mxCell id="fUje2Ikz33wsZxV5B8qo-1" value="model-free方法" style="rounded=0;whiteSpace=wrap;html=1;" vertex="1" parent="1">
          <mxGeometry x="330" y="80" width="120" height="60" as="geometry" />
        </mxCell>
        <mxCell id="fUje2Ikz33wsZxV5B8qo-2" value="数据预处理" style="rounded=0;whiteSpace=wrap;html=1;" vertex="1" parent="1">
          <mxGeometry x="110" y="200" width="120" height="60" as="geometry" />
        </mxCell>
        <mxCell id="fUje2Ikz33wsZxV5B8qo-3" value="特征工程" style="rounded=0;whiteSpace=wrap;html=1;" vertex="1" parent="1">
          <mxGeometry x="280" y="200" width="120" height="60" as="geometry" />
        </mxCell>
        <mxCell id="fUje2Ikz33wsZxV5B8qo-4" value="强化学习建模" style="rounded=0;whiteSpace=wrap;html=1;" vertex="1" parent="1">
          <mxGeometry x="450" y="200" width="120" height="60" as="geometry" />
        </mxCell>
        <mxCell id="fUje2Ikz33wsZxV5B8qo-13" style="edgeStyle=orthogonalEdgeStyle;rounded=0;orthogonalLoop=1;jettySize=auto;html=1;exitX=0.5;exitY=1;exitDx=0;exitDy=0;entryX=0.5;entryY=0;entryDx=0;entryDy=0;" edge="1" parent="1" source="fUje2Ikz33wsZxV5B8qo-5" target="fUje2Ikz33wsZxV5B8qo-10">
          <mxGeometry relative="1" as="geometry" />
        </mxCell>
        <mxCell id="fUje2Ikz33wsZxV5B8qo-14" style="edgeStyle=orthogonalEdgeStyle;rounded=0;orthogonalLoop=1;jettySize=auto;html=1;exitX=0.5;exitY=1;exitDx=0;exitDy=0;" edge="1" parent="1" source="fUje2Ikz33wsZxV5B8qo-5" target="fUje2Ikz33wsZxV5B8qo-11">
          <mxGeometry relative="1" as="geometry" />
        </mxCell>
        <mxCell id="fUje2Ikz33wsZxV5B8qo-15" style="edgeStyle=orthogonalEdgeStyle;rounded=0;orthogonalLoop=1;jettySize=auto;html=1;exitX=0.5;exitY=1;exitDx=0;exitDy=0;entryX=0.5;entryY=0;entryDx=0;entryDy=0;" edge="1" parent="1" source="fUje2Ikz33wsZxV5B8qo-5" target="fUje2Ikz33wsZxV5B8qo-12">
          <mxGeometry relative="1" as="geometry" />
        </mxCell>
        <mxCell id="fUje2Ikz33wsZxV5B8qo-5" value="强化学习算法" style="rounded=0;whiteSpace=wrap;html=1;" vertex="1" parent="1">
          <mxGeometry x="630" y="200" width="120" height="60" as="geometry" />
        </mxCell>
        <mxCell id="fUje2Ikz33wsZxV5B8qo-10" value="value-based（6篇）" style="rounded=0;whiteSpace=wrap;html=1;" vertex="1" parent="1">
          <mxGeometry x="480" y="340" width="120" height="60" as="geometry" />
        </mxCell>
        <mxCell id="fUje2Ikz33wsZxV5B8qo-11" value="policy-based（4篇）" style="rounded=0;whiteSpace=wrap;html=1;" vertex="1" parent="1">
          <mxGeometry x="630" y="340" width="120" height="60" as="geometry" />
        </mxCell>
        <mxCell id="fUje2Ikz33wsZxV5B8qo-24" style="edgeStyle=orthogonalEdgeStyle;rounded=0;orthogonalLoop=1;jettySize=auto;html=1;exitX=0.5;exitY=1;exitDx=0;exitDy=0;entryX=0.5;entryY=0;entryDx=0;entryDy=0;" edge="1" parent="1" source="fUje2Ikz33wsZxV5B8qo-12" target="fUje2Ikz33wsZxV5B8qo-21">
          <mxGeometry relative="1" as="geometry" />
        </mxCell>
        <mxCell id="fUje2Ikz33wsZxV5B8qo-25" style="edgeStyle=orthogonalEdgeStyle;rounded=0;orthogonalLoop=1;jettySize=auto;html=1;exitX=0.5;exitY=1;exitDx=0;exitDy=0;entryX=0.5;entryY=0;entryDx=0;entryDy=0;" edge="1" parent="1" source="fUje2Ikz33wsZxV5B8qo-12" target="fUje2Ikz33wsZxV5B8qo-22">
          <mxGeometry relative="1" as="geometry" />
        </mxCell>
        <mxCell id="fUje2Ikz33wsZxV5B8qo-26" style="edgeStyle=orthogonalEdgeStyle;rounded=0;orthogonalLoop=1;jettySize=auto;html=1;exitX=0.5;exitY=1;exitDx=0;exitDy=0;entryX=0.5;entryY=0;entryDx=0;entryDy=0;" edge="1" parent="1" source="fUje2Ikz33wsZxV5B8qo-12" target="fUje2Ikz33wsZxV5B8qo-23">
          <mxGeometry relative="1" as="geometry" />
        </mxCell>
        <mxCell id="fUje2Ikz33wsZxV5B8qo-35" style="edgeStyle=orthogonalEdgeStyle;rounded=0;orthogonalLoop=1;jettySize=auto;html=1;exitX=1;exitY=0.5;exitDx=0;exitDy=0;entryX=0;entryY=0.5;entryDx=0;entryDy=0;" edge="1" parent="1" source="fUje2Ikz33wsZxV5B8qo-12" target="fUje2Ikz33wsZxV5B8qo-27">
          <mxGeometry relative="1" as="geometry" />
        </mxCell>
        <mxCell id="fUje2Ikz33wsZxV5B8qo-36" style="edgeStyle=orthogonalEdgeStyle;rounded=0;orthogonalLoop=1;jettySize=auto;html=1;exitX=1;exitY=0.5;exitDx=0;exitDy=0;entryX=0;entryY=0.5;entryDx=0;entryDy=0;" edge="1" parent="1" source="fUje2Ikz33wsZxV5B8qo-12" target="fUje2Ikz33wsZxV5B8qo-28">
          <mxGeometry relative="1" as="geometry" />
        </mxCell>
        <mxCell id="fUje2Ikz33wsZxV5B8qo-12" value="类actor-critic（大多数）" style="rounded=0;whiteSpace=wrap;html=1;" vertex="1" parent="1">
          <mxGeometry x="800" y="340" width="120" height="60" as="geometry" />
        </mxCell>
        <mxCell id="fUje2Ikz33wsZxV5B8qo-17" value="" style="endArrow=none;dashed=1;html=1;rounded=0;exitX=0.25;exitY=0;exitDx=0;exitDy=0;" edge="1" parent="1" source="fUje2Ikz33wsZxV5B8qo-10">
          <mxGeometry width="50" height="50" relative="1" as="geometry">
            <mxPoint x="460" y="310" as="sourcePoint" />
            <mxPoint x="510" y="260" as="targetPoint" />
          </mxGeometry>
        </mxCell>
        <mxCell id="fUje2Ikz33wsZxV5B8qo-19" value="动作空间设计" style="text;html=1;align=center;verticalAlign=middle;resizable=0;points=[];autosize=1;strokeColor=none;fillColor=none;" vertex="1" parent="1">
          <mxGeometry x="475" y="270" width="90" height="20" as="geometry" />
        </mxCell>
        <mxCell id="fUje2Ikz33wsZxV5B8qo-21" value="DDPG" style="rounded=0;whiteSpace=wrap;html=1;" vertex="1" parent="1">
          <mxGeometry x="660" y="460" width="120" height="60" as="geometry" />
        </mxCell>
        <mxCell id="fUje2Ikz33wsZxV5B8qo-22" value="PPO" style="rounded=0;whiteSpace=wrap;html=1;" vertex="1" parent="1">
          <mxGeometry x="800" y="460" width="120" height="60" as="geometry" />
        </mxCell>
        <mxCell id="fUje2Ikz33wsZxV5B8qo-23" value="A3C" style="rounded=0;whiteSpace=wrap;html=1;" vertex="1" parent="1">
          <mxGeometry x="940" y="460" width="120" height="60" as="geometry" />
        </mxCell>
        <mxCell id="fUje2Ikz33wsZxV5B8qo-27" value="adaptive AC&lt;br&gt;结合市场风格变化的主观阈值" style="rounded=0;whiteSpace=wrap;html=1;" vertex="1" parent="1">
          <mxGeometry x="1000" y="230" width="120" height="60" as="geometry" />
        </mxCell>
        <mxCell id="fUje2Ikz33wsZxV5B8qo-28" value="adversarial AC&lt;br&gt;对抗学习提升稳健性" style="rounded=0;whiteSpace=wrap;html=1;" vertex="1" parent="1">
          <mxGeometry x="1000" y="340" width="120" height="60" as="geometry" />
        </mxCell>
      </root>
    </mxGraphModel>
  </diagram>
</mxfile>
